# xmcd
# Copyright (C) 1995-1998 Ti Kan
#
# Track frame offsets:
#       150
#       13137
#       27534
#       45900
#       59410
#       74410
#       88343
#
# Disc length: 1368 seconds
#
# Revision: 0
# Processed by: cddbd v1.4PL0 Copyright (c) Steve Scherf et al.
# Submitted via: CD-Transfer v1.0
#
DISCID=5e055607
DTITLE=Vollmond - Vollmond
DYEAR=2000
DGENRE=
TTITLE0=Hammerstrass 127
TTITLE1=Beat
TTITLE2=Mondstoub
TTITLE3=Troumfou
TTITLE4=Für Di and D'wänt
TTITLE5=Hammerstrass 127
TTITLE6=Beat (Instr.)
EXTD=
EXTT0=
EXTT1=
EXTT2=
EXTT3=
EXTT4=
EXTT5=
EXTT6=
PLAYORDER=
